<svg xmlns="http://www.w3.org/2000/svg" width="28.671" height="33.145" viewBox="0 0 28.671 33.145">
  <g id="Group_143" data-name="Group 143" transform="translate(-675.48 -1320.989)">
    <path id="Path_13" data-name="Path 13" d="M225.22,69.92a1.326,1.326,0,0,0-1.906,0l-7.168,7.168V57.366a1.367,1.367,0,1,0-2.734,0V77.088l-7.126-7.168a1.348,1.348,0,0,0-1.906,1.906l9.488,9.488a1.716,1.716,0,0,0,.456.29.823.823,0,0,0,.456.083,1.1,1.1,0,0,0,.5-.124,1.709,1.709,0,0,0,.456-.29l9.488-9.488a1.351,1.351,0,0,0,0-1.864Z" transform="translate(475.036 1264.99)" fill="#051663"/>
    <path id="Path_14" data-name="Path 14" d="M183.543,359.838H157.607a1.379,1.379,0,0,1-1.367-1.367v-8.783a1.367,1.367,0,1,1,2.734,0v7.458h23.2v-7.458a1.367,1.367,0,1,1,2.734,0v8.783A1.408,1.408,0,0,1,183.543,359.838Z" transform="translate(519.24 994.297)" fill="#051663"/>
  </g>
</svg>
