<svg id="Group_126" data-name="Group 126" xmlns="http://www.w3.org/2000/svg" width="27.12" height="27.119" viewBox="0 0 27.12 27.119">
  <path id="Path_4" data-name="Path 4" d="M1116.826,507.945h-12.151a7.492,7.492,0,0,0-7.484,7.484V527.58a7.492,7.492,0,0,0,7.484,7.484h12.151a7.493,7.493,0,0,0,7.484-7.484V515.429a7.492,7.492,0,0,0-7.484-7.484Zm5.078,19.635a5.084,5.084,0,0,1-5.078,5.078h-12.151a5.083,5.083,0,0,1-5.078-5.078V515.429a5.083,5.083,0,0,1,5.078-5.078h12.151a5.084,5.084,0,0,1,5.078,5.078Zm0,0" transform="translate(-1097.191 -507.945)" fill="#051663"/>
  <path id="Path_5" data-name="Path 5" d="M1116.342,519.157a7.94,7.94,0,1,0,7.94,7.939,7.948,7.948,0,0,0-7.94-7.939Zm0,13.145a5.206,5.206,0,1,1,5.206-5.206,5.212,5.212,0,0,1-5.206,5.206Zm0,0" transform="translate(-1102.782 -513.537)" fill="#051663"/>
  <path id="Path_6" data-name="Path 6" d="M1131.243,515.676a1.509,1.509,0,1,0,1.067.442,1.512,1.512,0,0,0-1.067-.442Zm0,0" transform="translate(-1110.245 -511.046)" fill="#051663"/>
</svg>
