<svg id="Group_55" data-name="Group 55" xmlns="http://www.w3.org/2000/svg" width="26.276" height="25.109" viewBox="0 0 26.276 25.109">
  <path id="Path_7" data-name="Path 7" d="M1158.068,1103.284V1113h-5.633v-9.064c0-2.277-.814-3.83-2.853-3.83a3.08,3.08,0,0,0-2.89,2.06,3.856,3.856,0,0,0-.187,1.373V1113h-5.634s.076-15.352,0-16.942h5.634v2.4c-.012.019-.027.037-.037.056h.037v-.056a5.593,5.593,0,0,1,5.077-2.8c3.707,0,6.485,2.421,6.485,7.625Zm-23.089-15.394a2.936,2.936,0,1,0-.074,5.855h.037a2.937,2.937,0,1,0,.036-5.855ZM1132.126,1113h5.631v-16.942h-5.631Zm0,0" transform="translate(-1131.791 -1087.89)" fill="#051663"/>
</svg>
