<svg id="Group_56" data-name="Group 56" xmlns="http://www.w3.org/2000/svg" width="30.253" height="24.574" viewBox="0 0 30.253 24.574">
  <path id="Path_8" data-name="Path 8" d="M1065.755,1091.293a12.38,12.38,0,0,1-3.564.981,6.245,6.245,0,0,0,2.732-3.436,12.362,12.362,0,0,1-3.951,1.505,6.2,6.2,0,0,0-10.728,4.247,6.424,6.424,0,0,0,.159,1.413,17.62,17.62,0,0,1-12.8-6.482,6.2,6.2,0,0,0,1.919,8.281,6.108,6.108,0,0,1-2.806-.775v.076a6.222,6.222,0,0,0,4.975,6.093,6.409,6.409,0,0,1-1.633.21,6.313,6.313,0,0,1-1.172-.108,6.226,6.226,0,0,0,5.8,4.31,12.473,12.473,0,0,1-7.71,2.649,13.261,13.261,0,0,1-1.477-.083,17.562,17.562,0,0,0,9.517,2.786c11.411,0,17.652-9.454,17.652-17.65l-.019-.8a12.494,12.494,0,0,0,3.1-3.214Zm0,0" transform="translate(-1035.502 -1088.386)" fill="#051663"/>
</svg>
