<svg id="Frame" xmlns="http://www.w3.org/2000/svg" width="64" height="64.019" viewBox="0 0 64 64.019">
  <g id="Group">
    <path id="Vector" d="M0,10.648H8.56V9.105H1.806V6.1h6V4.553h-6V1.543H8.56V0H0Z" transform="translate(15.069 13.639)" fill="#fff"/>
    <path id="Vector-2" data-name="Vector" d="M0,10.648H8.56V9.105H1.806V6.076h6V4.553h-6V1.543H8.56V0H0Z" transform="translate(15.069 39.6)" fill="#fff"/>
    <path id="Vector-3" data-name="Vector" d="M7.958,5.531H7.544A2.393,2.393,0,0,0,9.068,3.085C9.068.357,6.791,0,4.59,0H0V10.629H1.787V6.566H7.3v4.063H9.086V6.566C9.086,5.869,8.71,5.531,7.958,5.531Zm-.7-2.239c0,1.58-.828,1.75-2.69,1.75H1.787v-3.5H4.571C6.434,1.524,7.262,1.693,7.262,3.292Z" transform="translate(28.877 26.657)" fill="#fff"/>
    <path id="Vector-4" data-name="Vector" d="M5.324,0A5.111,5.111,0,0,0,0,5.456,5.116,5.116,0,0,0,5.324,10.93a5.112,5.112,0,0,0,5.305-5.474A5.106,5.106,0,0,0,5.324,0Zm3.5,5.456c0,2.464-1.317,3.932-3.5,3.932-2.22,0-3.537-1.467-3.537-3.932,0-2.446,1.317-3.913,3.537-3.913C7.506,1.524,8.823,2.991,8.823,5.456Z" transform="translate(40.861 39.469)" fill="#fff"/>
    <path id="Vector-5" data-name="Vector" d="M5.324,0A5.111,5.111,0,0,0,0,5.456,5.116,5.116,0,0,0,5.324,10.93a5.112,5.112,0,0,0,5.305-5.474A5.106,5.106,0,0,0,5.324,0Zm3.5,5.456c0,2.464-1.317,3.932-3.5,3.932-2.22,0-3.537-1.467-3.537-3.932,0-2.446,1.317-3.913,3.537-3.913C7.506,1.543,8.823,2.991,8.823,5.456Z" transform="translate(40.861 13.507)" fill="#fff"/>
    <path id="Vector-6" data-name="Vector" d="M6.321,4.948c-.282-.075-.6-.15-.922-.245-.282-.075-.546-.151-.79-.207-1.5-.4-2.3-.621-2.3-1.392,0-.922.941-1.561,2.314-1.561,1.731,0,2.747.828,2.747,2.2v.263H9.162V3.744C9.162,1.938,7.976,0,4.609,0A5.2,5.2,0,0,0,1.844.7,2.769,2.769,0,0,0,.508,3.142C.508,5.1,2.352,5.568,4.12,6.02l.038-.169L4.12,6.02c.263.075.546.132.809.207.282.075.564.15.828.226C7.13,6.791,7.788,7,7.788,7.882c0,1.26-1.43,1.524-2.634,1.524-2.126,0-3.367-.433-3.367-2.653V6.49H0v.263c0,2.859,1.637,4.2,5.155,4.2,3.65,0,4.421-1.693,4.421-3.123C9.594,5.757,8.071,5.38,6.321,4.948Z" transform="translate(54.406 53.07)" fill="#fff"/>
    <path id="Vector-7" data-name="Vector" d="M5.155,10.93c3.65,0,4.421-1.693,4.421-3.123,0-2.051-1.524-2.427-3.273-2.859C6.02,4.872,5.7,4.8,5.38,4.7c-.282-.075-.546-.15-.79-.207-1.5-.4-2.3-.621-2.3-1.392,0-.922.941-1.561,2.314-1.561,1.731,0,2.747.828,2.747,2.2v.263H9.143V3.744C9.143,1.938,7.958,0,4.59,0A5.2,5.2,0,0,0,1.825.7,2.769,2.769,0,0,0,.489,3.142C.489,5.1,2.333,5.568,4.12,6.02c.263.075.546.132.809.207.282.075.583.15.828.226C7.13,6.791,7.788,7,7.788,7.882c0,1.26-1.43,1.524-2.634,1.524-2.126,0-3.367-.433-3.367-2.653V6.49H0v.263C0,9.594,1.637,10.93,5.155,10.93Z" transform="translate(54.424)" fill="#fff"/>
    <path id="Vector-8" data-name="Vector" d="M9.82,0,6.058,4.12,2.314,0H0L4.929,5.38,0,10.761l2.314.019L6.058,6.641,9.82,10.78h2.314L7.205,5.38,12.134,0Z" transform="translate(0 0.075)" fill="#fff"/>
    <path id="Vector-9" data-name="Vector" d="M9.82,0,6.058,4.12,2.314,0H0L4.929,5.38,0,10.761l2.314.019L6.058,6.641,9.82,10.78h2.314L7.205,5.38,12.134,0Z" transform="translate(0 53.108)" fill="#fff"/>
  </g>
</svg>
