<svg id="Frame" xmlns="http://www.w3.org/2000/svg" width="252.925" height="252.999" viewBox="0 0 252.925 252.999">
  <g id="Group">
    <path id="Vector" d="M0,42.08H33.827v-6.1H7.137v-11.9H30.854v-6.1H7.137V6.1h26.69V0H0Z" transform="translate(59.551 53.901)" fill="#fff"/>
    <path id="Vector-2" data-name="Vector" d="M0,42.08H33.827v-6.1H7.137V24.014H30.854V17.992H7.137V6.1h26.69V0H0Z" transform="translate(59.551 156.498)" fill="#fff"/>
    <path id="Vector-3" data-name="Vector" d="M31.448,21.858H29.813c3.94-1.561,6.022-4.832,6.022-9.665C35.835,1.413,26.839,0,18.14,0H0V42.005H7.063V25.947H28.846V42.005h7.063V25.947C35.909,23.2,34.422,21.858,31.448,21.858ZM28.7,13.011c0,6.245-3.271,6.914-10.631,6.914h-11V6.1h11C25.426,6.022,28.7,6.691,28.7,13.011Z" transform="translate(114.121 105.348)" fill="#fff"/>
    <path id="Vector-4" data-name="Vector" d="M21.04,0C8.475,0,0,8.7,0,21.56,0,34.5,8.475,43.195,21.04,43.195c12.49,0,20.966-8.7,20.966-21.635C41.931,8.624,33.53,0,21.04,0ZM34.868,21.56c0,9.739-5.2,15.538-13.828,15.538-8.773,0-13.977-5.8-13.977-15.538C7.063,11.9,12.267,6.1,21.04,6.1,29.664,6.022,34.868,11.821,34.868,21.56Z" transform="translate(161.479 155.978)" fill="#fff"/>
    <path id="Vector-5" data-name="Vector" d="M21.04,0C8.475,0,0,8.7,0,21.56,0,34.5,8.475,43.195,21.04,43.195c12.49,0,20.966-8.7,20.966-21.635C41.931,8.624,33.53,0,21.04,0ZM34.868,21.56c0,9.739-5.2,15.538-13.828,15.538-8.773,0-13.977-5.8-13.977-15.538C7.063,11.9,12.267,6.1,21.04,6.1,29.664,6.1,34.868,11.821,34.868,21.56Z" transform="translate(161.479 53.38)" fill="#fff"/>
    <path id="Vector-6" data-name="Vector" d="M24.98,19.553c-1.115-.3-2.379-.595-3.643-.966-1.115-.3-2.156-.595-3.123-.818-5.948-1.561-9.07-2.453-9.07-5.5,0-3.643,3.717-6.171,9.145-6.171,6.84,0,10.855,3.271,10.855,8.7v1.041h7.063V14.795C36.206,7.658,31.523,0,18.215,0A20.53,20.53,0,0,0,7.286,2.751a10.942,10.942,0,0,0-5.279,9.665c0,7.732,7.286,9.591,14.274,11.375l.149-.669-.149.669c1.041.3,2.156.52,3.2.818,1.115.3,2.23.595,3.271.892,5.427,1.338,8.029,2.156,8.029,5.65,0,4.981-5.65,6.022-10.408,6.022-8.4,0-13.308-1.71-13.308-10.483V25.649H0V26.69c0,11.3,6.468,16.579,20.371,16.579,14.423,0,17.471-6.691,17.471-12.341C37.916,22.75,31.894,21.263,24.98,19.553Z" transform="translate(215.008 209.73)" fill="#fff"/>
    <path id="Vector-7" data-name="Vector" d="M20.371,43.195c14.423,0,17.471-6.691,17.471-12.341,0-8.1-6.022-9.591-12.936-11.3-1.115-.3-2.379-.595-3.643-.966-1.115-.3-2.156-.595-3.123-.818-5.948-1.561-9.07-2.453-9.07-5.5,0-3.643,3.717-6.171,9.145-6.171,6.84,0,10.855,3.271,10.855,8.7v1.041h7.063V14.795C36.132,7.658,31.448,0,18.14,0A20.53,20.53,0,0,0,7.212,2.751a10.942,10.942,0,0,0-5.279,9.665c0,7.732,7.286,9.591,14.349,11.375,1.041.3,2.156.52,3.2.818,1.115.3,2.3.595,3.271.892,5.427,1.338,8.029,2.156,8.029,5.65,0,4.981-5.65,6.022-10.408,6.022-8.4,0-13.308-1.71-13.308-10.483V25.649H0V26.69C0,37.916,6.468,43.195,20.371,43.195Z" transform="translate(215.083)" fill="#fff"/>
    <path id="Vector-8" data-name="Vector" d="M38.809,0,23.939,16.282,9.145,0H0L19.479,21.263,0,42.526l9.145.074L23.939,26.244,38.809,42.6h9.145L28.474,21.263,47.953,0Z" transform="translate(0 0.297)" fill="#fff"/>
    <path id="Vector-9" data-name="Vector" d="M38.809,0,23.939,16.282,9.145,0H0L19.479,21.263,0,42.526l9.145.074L23.939,26.244,38.809,42.6h9.145L28.474,21.263,47.953,0Z" transform="translate(0 209.878)" fill="#fff"/>
  </g>
</svg>
